<?xml version="1.0" standalone="no"?>
<!DOCTYPE svg PUBLIC "-//W3C//DTD SVG 20010904//EN"
 "http://www.w3.org/TR/2001/REC-SVG-20010904/DTD/svg10.dtd">
<svg version="1.0" xmlns="http://www.w3.org/2000/svg"
 width="720.000000pt" height="720.000000pt" viewBox="0 0 720.000000 720.000000"
 preserveAspectRatio="xMidYMid meet">
<metadata>
Created by potrace 1.14, written by Peter Selinger 2001-2017
</metadata>
<g transform="translate(0.000000,720.000000) scale(0.100000,-0.100000)"
fill="#000000" stroke="none">
<path d="M3379 6336 c-2 -2 -35 -7 -74 -10 -198 -18 -437 -78 -655 -165 -88
-35 -289 -143 -385 -206 -193 -127 -401 -315 -540 -487 -244 -303 -438 -730
-490 -1078 -3 -20 -8 -47 -11 -60 -28 -136 -26 -516 5 -715 62 -398 236 -786
501 -1119 79 -99 225 -244 345 -341 384 -313 878 -501 1359 -520 361 -14 2052
-24 2321 -13 173 7 212 17 222 56 6 26 -5 51 -118 262 -34 63 -82 153 -107
200 -24 47 -61 117 -82 155 -39 72 -121 228 -160 302 l-22 42 48 73 c41 64
147 254 150 268 0 3 13 32 28 65 62 137 147 419 161 535 3 26 18 124 22 150 3
14 6 115 8 225 5 341 -42 596 -167 914 -26 66 -129 274 -161 326 -225 361
-515 643 -870 844 -60 33 -110 61 -112 61 -2 0 -36 15 -77 34 -180 82 -441
158 -623 181 -27 4 -61 9 -75 12 -30 6 -435 14 -441 9z m407 -509 c12 -3 39
-8 60 -11 22 -3 50 -8 64 -11 14 -3 34 -7 45 -9 121 -23 301 -88 440 -159 55
-28 102 -53 105 -56 3 -3 17 -12 32 -20 61 -31 243 -177 333 -267 161 -160
290 -348 387 -565 48 -109 111 -305 123 -389 4 -25 8 -47 10 -50 26 -42 26
-498 0 -600 -2 -8 -7 -35 -10 -60 -4 -24 -8 -47 -10 -51 -2 -3 -7 -21 -10 -39
-13 -72 -79 -251 -137 -370 -34 -69 -64 -127 -68 -130 -4 -3 -9 -12 -12 -20
-8 -22 -136 -198 -178 -245 -123 -139 -281 -273 -433 -367 -185 -116 -448
-217 -632 -245 -16 -2 -36 -6 -44 -9 -54 -18 -398 -26 -516 -11 -636 81 -1180
473 -1456 1052 -81 168 -146 396 -167 579 -9 81 -9 356 0 429 109 854 787
1530 1628 1623 30 4 57 8 59 10 5 4 364 -4 387 -9z"/>
<path d="M3621 4713 c-15 -57 -79 -324 -85 -353 -2 -14 -26 -110 -51 -215 -26
-104 -49 -200 -51 -211 -2 -12 -28 -122 -58 -245 -80 -327 -97 -401 -100 -428
-1 -10 20 -13 98 -12 54 0 100 2 101 3 3 3 127 514 132 542 2 10 15 64 29 120
14 55 27 108 29 116 8 37 47 198 55 230 6 19 33 130 60 245 28 116 53 218 56
228 5 15 -4 17 -100 17 l-105 0 -10 -37z"/>
<path d="M3125 4520 c-50 -23 -406 -177 -437 -189 -13 -5 -44 -18 -68 -29 -25
-11 -115 -51 -200 -87 -85 -37 -174 -76 -198 -86 l-43 -20 3 -120 3 -120 185
-80 c102 -44 199 -86 215 -93 66 -30 123 -55 182 -80 35 -14 86 -37 115 -50
59 -27 237 -102 273 -116 l23 -9 -1 140 -2 141 -50 17 c-28 10 -66 25 -85 33
-19 9 -141 58 -270 108 -316 125 -296 111 -213 143 79 31 593 226 609 231 12
5 19 286 6 286 -4 -1 -25 -9 -47 -20z"/>
<path d="M3930 4401 l0 -138 343 -133 c188 -73 344 -135 346 -136 2 -2 -13
-11 -35 -19 -21 -9 -48 -20 -59 -25 -11 -5 -81 -32 -155 -60 -74 -28 -148 -57
-165 -64 -16 -8 -85 -35 -152 -61 l-123 -49 0 -138 c0 -76 2 -138 5 -138 3 0
76 31 162 69 87 38 228 99 313 136 85 37 173 76 195 86 22 10 103 45 180 78
l140 60 0 121 0 122 -100 43 c-55 23 -269 116 -475 205 -206 89 -385 166 -397
171 l-23 9 0 -139z"/>
</g>
</svg>
